{"accessors":[{"bufferView":0,"byteOffset":0,"componentType":5126,"count":3432,"max":[92.08689880371094,26.101600646972656,5.0],"min":[-0.0009765619761310518,0.13964800536632538,-5.0],"type":"VEC3"},{"bufferView":1,"byteOffset":0,"componentType":5121,"count":6808,"normalized":true,"type":"VEC4"},{"bufferView":2,"byteOffset":0,"componentType":5125,"count":20424,"type":"SCALAR"}],"asset":{"generator":"VTK","version":"2.0"},"bufferViews":[{"buffer":0,"byteLength":41184,"byteOffset":0},{"buffer":1,"byteLength":27232,"byteOffset":0},{"buffer":2,"byteLength":81696,"byteOffset":0}],"buffers":[{"byteLength":41184,"uri":"data:application/octet-stream;base64,"},{"byteLength":27232,"uri":"data:application/octet-stream;base64,"},{"byteLength":81696,"uri":"data:application/octet-stream;base64,"}],"cameras":[{"perspective":{"aspectRatio":1.4734982332155477,"yfov":0.5235987755982988,"zfar":278.6536356710178,"znear":197.87386625625504},"type":"perspective"}],"materials":[{"pbrMetallicRoughness":{"baseColorFactor":[1.0,1.0,1.0,1.0],"metallicFactor":1.0,"roughnessFactor":0.047619047619047616}}],"meshes":[{"name":"mesh0","primitives":[{"attributes":{"COLOR_0":1,"POSITION":0},"indices":2,"material":0,"mode":4}]}],"nodes":[{"mesh":0,"name":"mesh0"},{"camera":0,"matrix":[0.9683567779761999,-0.03626956208631666,0.24692037059266553,-0.0,0.04519156493179884,0.9985107803257904,-0.030560497904907773,0.0,-0.24544423604266508,0.04075218324516718,0.9685537602808555,-0.0,-11.240529924992044,22.631653640453298,226.04784511964462,1.0],"name":"Camera Node"},{"children":[0,1],"name":"Renderer Node"}],"scene":0,"scenes":[{"name":"Layer 0","nodes":[2]}]}