{
  "asset": {
    "generator": "gltfeditor.com",
    "version": "2.0"
  },
  "buffers": [
    {
      "uri": "data:application/octet-stream;base64,",
      "byteLength": 723496
    },
    {
      "uri": "data:application/octet-stream;base64,",
      "byteLength": 1470248
    }
  ],
  "bufferViews": [
    {
      "buffer": 0,
      "byteOffset": 0,
      "byteLength": 198600,
      "byteStride": 12,
      "target": 34962
    },
    {
      "buffer": 0,
      "byteOffset": 198600,
      "byteLength": 132400,
      "byteStride": 8,
      "target": 34962
    },
    {
      "buffer": 0,
      "byteOffset": 331000,
      "byteLength": 392496,
      "target": 34963
    },
    {
      "buffer": 1,
      "byteOffset": 0,
      "byteLength": 401016,
      "byteStride": 12,
      "target": 34962
    },
    {
      "buffer": 1,
      "byteOffset": 401016,
      "byteLength": 267344,
      "byteStride": 8,
      "target": 34962
    },
    {
      "buffer": 1,
      "byteOffset": 668360,
      "byteLength": 801888,
      "target": 34963
    }
  ],
  "accessors": [
    {
      "bufferView": 0,
      "byteOffset": 0,
      "componentType": 5126,
      "normalized": false,
      "count": 16550,
      "min": [
        -48.4838981628418,
        -71.81220245361328,
        -32.06330108642578
      ],
      "max": [
        56.46969985961914,
        66.5,
        32.24290084838867
      ],
      "type": "VEC3"
    },
    {
      "bufferView": 1,
      "byteOffset": 0,
      "componentType": 5126,
      "normalized": false,
      "count": 16550,
      "min": [
        0.003906251862645149,
        0.49000000953674316
      ],
      "max": [
        0.9961240291595459,
        0.49000000953674316
      ],
      "type": "VEC2"
    },
    {
      "bufferView": 2,
      "byteOffset": 0,
      "componentType": 5125,
      "normalized": false,
      "count": 98124,
      "min": [
        0
      ],
      "max": [
        16549
      ],
      "type": "SCALAR"
    },
    {
      "bufferView": 3,
      "byteOffset": 0,
      "componentType": 5126,
      "normalized": false,
      "count": 33418,
      "min": [
        -70.9990005493164,
        -106.99500274658203,
        -71.16680145263672
      ],
      "max": [
        72.65670013427734,
        73,
        80.99810028076172
      ],
      "type": "VEC3"
    },
    {
      "bufferView": 4,
      "byteOffset": 0,
      "componentType": 5126,
      "normalized": false,
      "count": 33418,
      "min": [
        0.0038759689778089523,
        0.49000000953674316
      ],
      "max": [
        0.0038759689778089523,
        0.49000000953674316
      ],
      "type": "VEC2"
    },
    {
      "bufferView": 5,
      "byteOffset": 0,
      "componentType": 5125,
      "normalized": false,
      "count": 200472,
      "min": [
        0
      ],
      "max": [
        33417
      ],
      "type": "SCALAR"
    }
  ],
  "scene": 0,
  "scenes": [
    {
      "nodes": [
        4
      ],
      "name": "Layer 0"
    }
  ],
  "nodes": [
    {
      "name": "mesh0",
      "mesh": 0
    },
    {
      "name": "mesh1",
      "mesh": 1
    },
    {
      "name": "Camera",
      "translation": [
        55.007991790771484,
        32.213600158691406,
        3.6954257488250732
      ],
      "rotation": [
        -0.06790316849946976,
        0.07457666844129562,
        -0.0029018365312367678,
        0.9948965311050415
      ],
      "scale": [
        1,
        1,
        1
      ]
    },
    {
      "name": "Camera Node",
      "children": [
        2
      ],
      "translation": [
        16.781850814819336,
        352.8583984375,
        -37.10710144042969
      ],
      "rotation": [
        0.013517366722226143,
        0.7428419589996338,
        0.669224739074707,
        0.011888522654771805
      ],
      "scale": [
        1,
        1,
        1
      ]
    },
    {
      "name": "Renderer Node",
      "children": [
        0,
        1,
        3
      ],
      "translation": [
        0,
        0,
        0
      ],
      "rotation": [
        -0.7071067690849304,
        0,
        0,
        0.7071068286895752
      ],
      "scale": [
        1,
        1,
        1
      ]
    }
  ],
  "meshes": [
    {
      "primitives": [
        {
          "material": 0,
          "mode": 4,
          "attributes": {
            "POSITION": 0,
            "TEXCOORD_0": 1
          },
          "indices": 2
        }
      ]
    },
    {
      "primitives": [
        {
          "material": 1,
          "mode": 4,
          "attributes": {
            "POSITION": 3,
            "TEXCOORD_0": 4
          },
          "indices": 5
        }
      ]
    }
  ],
  "materials": [
    {
      "pbrMetallicRoughness": {
        "baseColorFactor": [
          1,
          1,
          1,
          1
        ],
        "metallicFactor": 0,
        "roughnessFactor": 1,
        "baseColorTexture": {
          "index": 0,
          "texCoord": 0
        }
      },
      "emissiveFactor": [
        0,
        0,
        0
      ],
      "alphaMode": "BLEND",
      "doubleSided": true
    },
    {
      "pbrMetallicRoughness": {
        "baseColorFactor": [
          1,
          1,
          1,
          0.41
        ],
        "metallicFactor": 0,
        "roughnessFactor": 1,
        "baseColorTexture": {
          "index": 1,
          "texCoord": 0
        }
      },
      "emissiveFactor": [
        0,
        0,
        0
      ],
      "alphaMode": "OPAQUE",
      "doubleSided": false
    }
  ],
  "textures": [
    {
      "sampler": 0,
      "source": 0
    },
    {
      "sampler": 1,
      "source": 1
    }
  ],
  "samplers": [
    {
      "magFilter": 9728,
      "minFilter": 9728,
      "wrapS": 33071,
      "wrapT": 33071
    },
    {
      "magFilter": 9728,
      "minFilter": 9728,
      "wrapS": 33071,
      "wrapT": 33071
    }
  ],
  "images": [
    {
      "uri": "data:image/png;base64,",
      "mimeType": "image/png"
    },
    {
      "uri": "data:image/png;base64,",
      "mimeType": "image/png"
    }
  ]
}