{"accessors":[{"bufferView":0,"byteOffset":0,"componentType":5126,"count":33418,"max":[72.65670013427734,73.0,80.99810028076172],"min":[-70.9990005493164,-106.99500274658203,-71.16680145263672],"type":"VEC3"},{"bufferView":1,"byteOffset":0,"componentType":5126,"count":33418,"normalized":false,"type":"VEC2"},{"bufferView":2,"byteOffset":0,"componentType":5125,"count":200472,"type":"SCALAR"},{"bufferView":4,"byteOffset":0,"componentType":5126,"count":36180,"max":[51.35390090942383,38.743499755859375,46.49720001220703],"min":[-50.4546012878418,-90.71219635009766,-39.40010070800781],"type":"VEC3"},{"bufferView":5,"byteOffset":0,"componentType":5126,"count":36180,"normalized":false,"type":"VEC2"},{"bufferView":6,"byteOffset":0,"componentType":5125,"count":215616,"type":"SCALAR"}],"asset":{"generator":"VTK","version":"2.0"},"bufferViews":[{"buffer":0,"byteLength":401016,"byteOffset":0},{"buffer":1,"byteLength":267344,"byteOffset":0},{"buffer":2,"byteLength":801888,"byteOffset":0},{"buffer":3,"byteLength":273,"byteOffset":0},{"buffer":4,"byteLength":434160,"byteOffset":0},{"buffer":5,"byteLength":289440,"byteOffset":0},{"buffer":6,"byteLength":862464,"byteOffset":0},{"buffer":7,"byteLength":273,"byteOffset":0}],"buffers":[{"byteLength":401016,"uri":"data:application/octet-stream;base64,"},{"byteLength":267344,"uri":"data:application/octet-stream;base64,"},{"byteLength":801888,"uri":"data:application/octet-stream;base64,"},{"byteLength":273,"uri":"data:application/octet-stream;base64,"},{"byteLength":434160,"uri":"data:application/octet-stream;base64,"},{"byteLength":289440,"uri":"data:application/octet-stream;base64,"},{"byteLength":862464,"uri":"data:application/octet-stream;base64,"},{"byteLength":273,"uri":"data:application/octet-stream;base64,"}],"cameras":[{"perspective":{"aspectRatio":1.4734982332155477,"yfov":0.5235987755982988,"zfar":48.200942463616215,"znear":18.33961294456465},"type":"perspective"}],"images":[{"bufferView":3,"mimeType":"image/png"},{"bufferView":7,"mimeType":"image/png"}],"materials":[{"alphaMode" : "BLEND","doubleSided": true,"pbrMetallicRoughness":{"baseColorFactor":[1.0,1.0,1.0,0.46],"baseColorTexture":{"index":0,"texCoord":0},"metallicFactor":0.0,"roughnessFactor":1.0}},{"pbrMetallicRoughness":{"baseColorFactor":[1.0,1.0,1.0,1.0],"baseColorTexture":{"index":1,"texCoord":0},"metallicFactor":0.0,"roughnessFactor":1.0}}],"meshes":[{"name":"mesh0","primitives":[{"attributes":{"POSITION":0,"TEXCOORD_0":1},"indices":2,"material":0,"mode":4}]},{"name":"mesh1","primitives":[{"attributes":{"POSITION":3,"TEXCOORD_0":4},"indices":5,"material":1,"mode":4}]}],"nodes":[{"matrix":[0.05,0.0,0.0,0.0,0.0,0.05,0.0,0.0,0.0,0.0,0.05,0.0,0.0,0.0,0.0,1.0],"mesh":0,"name":"mesh0"},{"matrix":[0.05,0.0,0.0,0.0,0.0,0.05,0.0,0.0,0.0,0.0,0.05,0.0,0.0,0.0,0.0,1.0],"mesh":1,"name":"mesh1"},{"camera":0,"matrix":[-0.5580583893441824,-0.19585708909350508,-0.806356518380298,-0.0,-0.780585011203027,0.4535908615515533,0.43004926531978827,0.0,0.281527750617496,0.8694224122765286,-0.4060132937029458,-0.0,14.128062939934109,24.07352608555685,-14.264191016629294,1.0],"name":"Camera Node"},{"children":[0,1,2],"name":"Renderer Node"}],"samplers":[{"magFilter":9728,"minFilter":9728,"wrapS":33071,"wrapT":33071},{"magFilter":9728,"minFilter":9728,"wrapS":33071,"wrapT":33071}],"scene":0,"scenes":[{"name":"Layer 0","nodes":[3]}],"textures":[{"sampler":0,"source":0},{"sampler":1,"source":1}]}